/* XPM */
static char *cc0f0f08ad224f6cd714be212d2f12feE5I41o8yPBiD2zWv[] = {
/* columns rows colors chars-per-pixel */
"64 50 8 1 ",
"  c None",
". c #050403",
"X c #543516",
"o c #9B6E2D",
"O c #CFA343",
"+ c #E1B047",
"@ c #EEEEEE",
"# c #FEFEFE",
/* pixels */
"                    XXXX                                        ",
"                    X++X         oXXXX                          ",
"                   X++++X       o+++oX                          ",
"                   X+OOOX       o+OO+oX                         ",
"                   XOOooooooooooo+OX+oX                         ",
"                   ooooo+oo+oo+Oo+XX+oX                         ",
"                   o+++++oo+oo+Oo+XX+oX                         ",
"                  o+++++++++oo+Oo++++oX                         ",
"                 o+++++++++++++OO++++oX                         ",
"                o++++++++++++++++++++oXX                        ",
"                o++++++++++++++++++++OoXX                       ",
"               o+++++++++++++++++++++OooX                       ",
"               o+++++++++++++++++++++OOoX                       ",
"               o++XXXX+++++XXXXX+++++OOoX                       ",
"               o+X###@X+++X####@X+++ooooX                       ",
"               o+XXo#@X+++XXXo#@X+++ooooX                       ",
"               o+XXo#@X+++XXXo#@X++++OOoX                       ",
"               o+XXo#@X+++XXXo#@X++++OOoX                       ",
"               o+XXX#@X+++XXXX#@X++oooooX                       ",
"               o+XXX#@X+++XXXX#@X++oooooX                       ",
"               o+X###@XO++X####@XO+++OOoX                       ",
"               o++XXXXOO+++XXXXXOO+++OOoX           XXXX        ",
"               o+++OOOO+++++OOOOO++oooooX          X++ooX       ",
"               o+++++++++++++++++++oooooX          X+++ooX      ",
"               o+++++......O+++++++++OOoX         X++++OoX      ",
"               o+++++...oooO+++++++++OOoX         X++++OoX      ",
"           oXXXo++++++++++++++++++++ooooX         X+++OooX      ",
"          o++OOo++++++++oXXXXXXXX+++ooooX         X+++OoX       ",
"          o++OOo+++++++o+++++++++++++OOoX        X++++OoX       ",
"          o++OOo+++++++o+++++++++++++OOoX       X++++OoX        ",
"           oXXXo+++++++o++++++++++++ooooX     XX++++OooX        ",
"               o++++++++oXXXXXX+++++ooooXXXXXX+++++OooX         ",
"               o+++++++++++++++++++++OOoXO+++++++OOooX          ",
"               o+++++++++++++++++++++OOoXOOOOOOOooooX           ",
"                o++++++++++++++++++++OoXooooooooXXXX            ",
"                o+++++++++++++++++++OOoXXXXXXXXX                ",
"                o+++++++++++++OO+++OoXXX                        ",
"                 o++++++++++++Oo+++OoXX                         ",
"                  o+++++++++++Oo+++OoXX                         ",
"                   o++++++++++Oo+++OoX                          ",
"                    ooo+++++++Oo+++OoX                          ",
"                    o+OXXXXXXXXo+++OoX                          ",
"                    o+OOOoX    o+++OoX                          ",
"                    o+OOOoX    o+++OoX                          ",
"                    o+OOOoX    o+++OoX                          ",
"                    o+OOOoX   o++++OoX                          ",
"                   o++OOOoX  o+++++OoX                          ",
"                  o++OOOOoX o+++OOOOoX                          ",
"                 XooooooooX oooooooooX                          ",
"                 XXXXXXXXXX XXXXXXXXXX                          ",
};
