/* XPM */
static char *cf81d4f9c85e48f5ba66a88be5d32bc8HCv56v9PGifw0t8v[] = {
/* columns rows colors chars-per-pixel */
"64 50 7 1 ",
"  c #A4C263",
". c #78A158",
"X c #A4C263",
"o c #C0D470",
"O c #D2E077",
"+ c #EAE178",
"@ c #E8EEAA",
/* pixels */
"                                                                ",
"                                                                ",
"                                                                ",
"                ................................                ",
"             ......XXXXXXXX...XXXXX..XXXXXXXX......             ",
"            ..XXXXXXXXXXXXXXXXXXXXXXXXXXXXXXXXXXX...            ",
"           ..XXXXXXXXXXXoXXXXXXXoXXXXXooooXXXXXXXXX..           ",
"           .XXXXXXoXooooooooXooXooXoooooooXoXXXXXXX..           ",
"           ..XXXXooooXooooXooooooooooXooooooooXoXXX..           ",
"          ...XXXoooooooooooooooooXoooooooooooooooXXX..          ",
"          ..XXXoooooooooooooooooooooooooooooooooooXX..          ",
"          ..XXXXooooooooooooooooooooooooooXoooooooXXX.          ",
"          .XXXoooooooooooooooooooooooooooooooooXooXXX.          ",
"          .XXXoooooooXoooooooooooooooooooooooooooooX..          ",
"          .XXXoXooooooooooooooooooooooooooooooooooXX..          ",
"          .XXooooooooooooooooooooooooooooooooooooooXX.          ",
"          .XXooooooooooooooooooooooooooooooooooooooXX.          ",
"          .XXXoooooooooooooooooooooooooooooooooooooXX.          ",
"          .XXooXoooooooooooooooooooooooooooooooooooXX.          ",
"          .XXooooooooooooooooooooooooooooooooXooooXXX.          ",
"          ..XXoooooXoooooooooooooooooooooooooooooXXX..          ",
"          ..XXXoooooooooooooooooooooooooooooooooooXX..          ",
"          ..XXoooooooooooooooooooooooooooooooooooXXX..          ",
"          .XXXooXooooooooooooooooooooooooooooooooXXXX.          ",
"          .XXoooooooooooooooooooooooooooooooooooooXXX.          ",
"          .XXooooooooooooooooooooooooooooooooooXooXXX.          ",
"          .XXXooooooooooooooooooooooooooooooooooooXXX.          ",
"          ..XXooooooooooooooooooooooooooooooooooooXXX.          ",
"          ..XXooooooooooooooooooooooooooooooXooooXXXX.          ",
"          .XXXXooXooooooooooooooooooooooooooooooooXX..          ",
"          .XXXoooooooooooooooooooooooooooooooooXoooX..          ",
"          .XXooooooooooooooooooooooooooooooooooooooXX.          ",
"          .XXXoooooooooooooooooooooooooooooooooooooXX.          ",
"          .XXoooooooooooooooooooooooooooooooooooooXX..          ",
"          .XXXooooooooooooooooooooooooooooooooooooXX..          ",
"          ..XXXooooooooooooooooooooooooooooooXoooXXXX.          ",
"          ..XXooooXoooooooooooooooooooooooooooooooXXX.          ",
"          .XXXXooooooooooooooooooooooooooooooooooXXXX.          ",
"          .XXXoooooooXooooooooooooooooooooooooooooXX..          ",
"          ..XXooooooooooooXoooooooooXoooooooooooooXX..          ",
"          ..XXXXoooooooooooooooooooooooooooXooXooXXX..          ",
"           .XXXooooXooooooooooXooooooooooooooooooXX..           ",
"           ..XXXooXooooooooXooooooXooXooooooooooXXX..           ",
"           ..XXXXXXXXoXoooXXXXoooXXXXXXoooXooXXXXXX..           ",
"            ..XXXXXXXXXXXXXXXXXXXXXXXXXXXXXXXXXXXX..            ",
"             ......X..XXXX...XXXXX...XXXXX..XX.....             ",
"                ................................                ",
"                                                                ",
"                                                                ",
"                                                                ",
};
